<svg height="512" viewBox="0 0 512 512" width="512" xmlns="http://www.w3.org/2000/svg"><path d="m296 112h-256a8 8 0 0 0 -8 8v16h-16v16h16v16h-16v16h16v16h-16v16h16v16h-16v16h16v16h-16v16h16v16h-16v16h16v16h-16v16h16v16h-16v16h16v16h-16v16h16v16h-16v16h16v16h-16v16h16v16a8 8 0 0 0 8 8h256a8 8 0 0 0 8-8v-368a8 8 0 0 0 -8-8zm-8 368h-240v-352h240z"/><path d="m424 16h-96a8 8 0 0 0 -8 8v464a8 8 0 0 0 8 8h96a8 8 0 0 0 8-8v-464a8 8 0 0 0 -8-8zm-88 464v-448h16v448zm32 0v-448h48v24h-32v16h32v16h-16v16h16v16h-32v16h32v16h-16v16h16v16h-32v16h32v16h-16v16h16v16h-32v16h32v16h-16v16h16v16h-32v16h32v16h-16v16h16v16h-32v16h32v16h-16v16h16v16h-32v16h32v24z"/><path d="m24 96h112a24.027 24.027 0 0 0 24-24v-32a24.027 24.027 0 0 0 -24-24h-112a8 8 0 0 0 -8 8v64a8 8 0 0 0 8 8zm120-56v32a8.008 8.008 0 0 1 -8 8h-16v-48h16a8.008 8.008 0 0 1 8 8zm-112-8h72v48h-72z"/><path d="m495.758 86.059-16-64a8 8 0 0 0 -15.516 0l-16 64a7.773 7.773 0 0 0 -.242 1.941v400a8 8 0 0 0 8 8h32a8 8 0 0 0 8-8v-400a7.773 7.773 0 0 0 -.242-1.941zm-15.758 361.941h-16v-324.688l8-8 8 8zm-16-359.016 8-32 8 32v11.7l-2.344-2.343a8 8 0 0 0 -11.312 0l-2.344 2.346zm16 391.016h-16v-16h16z"/><path d="m192 160h32v16h-32z"/><path d="m240 160h32v16h-32z"/><path d="m64 200h208v16h-208z"/><path d="m64 240h208v16h-208z"/><path d="m64 280h208v16h-208z"/><path d="m64 360h208v16h-208z"/><path d="m64 320h208v16h-208z"/><path d="m64 400h208v16h-208z"/><path d="m64 440h208v16h-208z"/><path d="m296 16h-112a8 8 0 0 0 -8 8v64a8 8 0 0 0 8 8h112a8 8 0 0 0 8-8v-64a8 8 0 0 0 -8-8zm-72 64h-32v-16h64v16zm64 0h-16v-24a8 8 0 0 0 -8-8h-72v-16h96z"/><circle cx="224" cy="71.997" r="8"/></svg>